<?xml version="1.0" encoding="UTF-8" standalone="no"?>
<svg
   xmlns:dc="http://purl.org/dc/elements/1.1/"
   xmlns:cc="http://creativecommons.org/ns#"
   xmlns:rdf="http://www.w3.org/1999/02/22-rdf-syntax-ns#"
   xmlns:svg="http://www.w3.org/2000/svg"
   xmlns="http://www.w3.org/2000/svg"
   xmlns:xlink="http://www.w3.org/1999/xlink"
   xmlns:sodipodi="http://sodipodi.sourceforge.net/DTD/sodipodi-0.dtd"
   xmlns:inkscape="http://www.inkscape.org/namespaces/inkscape"
   version="1.1"
   width="311.21057"
   height="294.82928"
   viewBox="0 0 0.60783311 0.57583845"
   preserveAspectRatio="xMidYMid"
   id="svg2"
   inkscape:version="0.91 r13725"
   sodipodi:docname="tumbit.svg"
   inkscape:export-filename="/home/e0/work/tmp/TumbleBit-projectpage/tumbit.svg.png"
   inkscape:export-xdpi="45.53043"
   inkscape:export-ydpi="45.53043">
  <metadata
     id="metadata22">
    <rdf:RDF>
      <cc:Work
         rdf:about="">
        <dc:format>image/svg+xml</dc:format>
        <dc:type
           rdf:resource="http://purl.org/dc/dcmitype/StillImage" />
        <dc:title></dc:title>
      </cc:Work>
    </rdf:RDF>
  </metadata>
  <sodipodi:namedview
     pagecolor="#ffffff"
     bordercolor="#666666"
     borderopacity="1"
     objecttolerance="10"
     gridtolerance="10"
     guidetolerance="10"
     inkscape:pageopacity="0"
     inkscape:pageshadow="2"
     inkscape:window-width="2495"
     inkscape:window-height="1416"
     id="namedview20"
     showgrid="false"
     inkscape:zoom="0.921875"
     inkscape:cx="-56.724931"
     inkscape:cy="-53.791392"
     inkscape:window-x="65"
     inkscape:window-y="24"
     inkscape:window-maximized="1"
     inkscape:current-layer="g16"
     inkscape:object-paths="true"
     inkscape:snap-nodes="false"
     fit-margin-top="0"
     fit-margin-left="20"
     fit-margin-right="0"
     fit-margin-bottom="0" />
  <!-- Android launcher icons: viewBox="-0.045 -0.045 1.09 1.09" -->
  <defs
     id="defs4">
    <linearGradient
       id="linearGradient6275"
       inkscape:collect="always">
      <stop
         id="stop6285"
         offset="0"
         style="stop-color:#00a34b;stop-opacity:1" />
      <stop
         style="stop-color:#3b54d1;stop-opacity:0.83529413"
         offset="0.23805647"
         id="stop6291" />
      <stop
         id="stop6293"
         offset="0.54418522"
         style="stop-color:#0bdbe3;stop-opacity:0.42745098" />
      <stop
         style="stop-color:#f9eb2b;stop-opacity:0.17647059"
         offset="0.82881016"
         id="stop6295" />
      <stop
         id="stop6287"
         offset="1"
         style="stop-color:#f9004b;stop-opacity:0.97674417" />
    </linearGradient>
    <linearGradient
       id="coin-gradient-3-7"
       x1="0.0004394635"
       y1="-0.00059563987"
       x2="0.0004394635"
       y2="63.996323"
       gradientTransform="matrix(0.99994167,0,0,1.0000583,2.7828196,-0.951666)"
       gradientUnits="userSpaceOnUse">
      <stop
         offset="0%"
         style="stop-color:#f9aa4b"
         id="stop6271" />
      <stop
         offset="100%"
         style="stop-color:#f7931a"
         id="stop6273" />
    </linearGradient>
    <linearGradient
       gradientUnits="userSpaceOnUse"
       gradientTransform="matrix(0.99994167,0,0,1.0000583,2.7828196,-0.951666)"
       y2="63.996323"
       x2="0.0004394635"
       y1="-0.00059563987"
       x1="0.0004394635"
       id="coin-gradient-3">
      <stop
         id="stop4755"
         style="stop-color:#f9aa4b"
         offset="0%" />
      <stop
         id="stop4757"
         style="stop-color:#f7931a"
         offset="100%" />
    </linearGradient>
    <marker
       inkscape:stockid="Arrow2Lend"
       orient="auto"
       refY="0"
       refX="0"
       id="Arrow2Lend"
       style="overflow:visible"
       inkscape:isstock="true">
      <path
         id="path4170"
         style="fill:#000000;fill-opacity:1;fill-rule:evenodd;stroke:#000000;stroke-width:0.625;stroke-linejoin:round;stroke-opacity:1"
         d="M 8.7185878,4.0337352 -2.2072895,0.01601326 8.7185884,-4.0017078 c -1.7454984,2.3720609 -1.7354408,5.6174519 -6e-7,8.035443 z"
         transform="matrix(-1.1,0,0,-1.1,-1.1,0)"
         inkscape:connector-curvature="0" />
    </marker>
    <filter
       id="_drop-shadow"
       style="color-interpolation-filters:sRGB">
      <feGaussianBlur
         in="SourceAlpha"
         result="blur-out"
         stdDeviation="1"
         id="feGaussianBlur7" />
      <feBlend
         in="SourceGraphic"
         in2="blur-out"
         mode="normal"
         id="feBlend9" />
    </filter>
    <linearGradient
       id="coin-gradient"
       x1="0.0004394635"
       y1="-0.00059563987"
       x2="0.0004394635"
       y2="63.996323"
       gradientTransform="matrix(0.99994167,0,0,1.0000583,2.7828196,-0.951666)"
       gradientUnits="userSpaceOnUse">
      <stop
         offset="0%"
         style="stop-color:#f9aa4b"
         id="stop12" />
      <stop
         offset="100%"
         style="stop-color:#f7931a"
         id="stop14" />
    </linearGradient>
    <linearGradient
       inkscape:collect="always"
       xlink:href="#linearGradient6275"
       id="linearGradient6281"
       x1="59.366505"
       y1="51.628326"
       x2="11.59477"
       y2="11.182524"
       gradientUnits="userSpaceOnUse"
       gradientTransform="translate(-33.350373,-12.282441)" />
  </defs>
  <g
     transform="matrix(0.00913596,0,0,0.00890499,0.28878201,0.12739605)"
     id="g16">
    <path
       id="coin"
       d="m 32.468338,26.506881 c -4.274,17.143 -21.637,27.576 -38.7819868,23.301 -17.1379952,-4.274 -27.5710042,-21.638 -23.2950002,-38.779999 C -25.336645,-6.1171036 -7.9736472,-16.551111 9.1663386,-12.277107 26.310338,-8.003104 36.742338,9.3628828 32.468338,26.506881 Z"
       style="fill:url(#linearGradient6281);fill-opacity:1;fill-rule:evenodd;stroke:none"
       inkscape:connector-curvature="0" />
    <path
       sodipodi:type="spiral"
       style="fill:none;fill-rule:evenodd;stroke:#ffffff;stroke-width:22.94903564;stroke-linecap:butt;stroke-linejoin:miter;stroke-miterlimit:4;stroke-dasharray:none;stroke-opacity:1"
       id="path4713"
       sodipodi:cx="77.016953"
       sodipodi:cy="273.35593"
       sodipodi:expansion="1"
       sodipodi:revolution="3"
       sodipodi:radius="174.70807"
       sodipodi:argument="-19.984476"
       sodipodi:t0="0"
       d="m 77.016953,273.35593 c 3.698338,-7.94057 12.528356,1.06769 13.197745,6.14688 1.814003,13.76429 -13.750267,21.75625 -25.49151,20.24861 -21.002328,-2.69683 -31.721542,-25.67145 -27.299472,-44.83614 6.489565,-28.12496 37.72528,-41.90176 64.180764,-34.35034 35.261,10.06486 52.16873,49.8224 41.4012,83.5254 C 129.45585,346.50212 81.066472,366.56992 40.13566,352.5424 -9.4370378,335.55319 -32.680019,278.47547 -15.367266,230.32775 5.0352134,173.58733 70.834158,147.16016 126.19201,167.77396 190.10484,191.57341 219.72206,266.1144 195.79666,328.67787 168.61111,399.76645 85.314025,432.57777 15.548131,405.33338 -62.718658,374.7693 -98.726991,282.70622 -68.158249,205.74022 -34.221151,120.29338 66.615203,81.085854 150.77954,114.98298"
       transform="matrix(0.22374704,0,0,0.2316482,-18.204257,-44.020805)" />
    <ellipse
       style="fill:#ffffff;fill-opacity:1;stroke:#ffffff;stroke-width:4.81339836;stroke-miterlimit:4;stroke-dasharray:none;stroke-opacity:1"
       id="path4717"
       cx="-0.76847541"
       cy="18.290302"
       rx="9.595912"
       ry="9.1258278" />
    <path
       id="symbol"
       d="m 18.991093,17.482871 c 2.50044,-4.469916 -0.01499,-8.5431198 -4.137531,-12.31826 l 4.006424,-5.7870737 -3.407632,-2.615607 -3.900734,5.6346205 C 10.655779,1.7089692 9.7274883,1.0242923 8.8048019,0.3446492 L 12.732057,-5.3267358 9.3265836,-7.941416 5.3199303,-2.1570373 C 4.5714349,-2.7078378 3.8371595,-3.2498747 3.1304121,-3.7917347 l 0.01199,-0.01829 -4.6984653,-3.6097417 -2.6037656,3.7628272 c 0,0 2.5505536,1.8822114 2.4755656,1.8980044 1.37988082,1.0600411 1.25560082,2.2332285 0.89138417,3.0483215 L -5.356855,7.8822055 c 0.09492,0.07367 0.216278,0.173135 0.343165,0.301064 -0.113597,-0.08698 -0.234579,-0.181056 -0.360275,-0.275871 l -6.394963,9.2349165 c -0.371451,0.402535 -1.122445,0.922459 -2.087919,0.183883 0.01591,0.07339 -2.476447,-1.902296 -2.476447,-1.902296 l -3.589492,3.686984 4.434348,3.40416 c 0.82448,0.634534 1.626394,1.272341 2.419846,1.889538 l -4.050701,5.853977 3.403325,2.613743 4.0092117,-5.791091 c 0.9207345,0.737476 1.8198447,1.439514 2.7033959,2.11656 l -3.9923136,5.763198 3.4076284,2.615608 4.046009,-5.841663 c 5.963752,4.058207 11.0060964,5.644458 15.3541716,0.465508 3.502222,-4.16938 2.847947,-7.731842 0.155015,-11.035634 2.695545,0.476758 5.19924,-0.40732 7.023947,-3.681921 z M 5.5595293,26.337795 C 2.5332304,30.713139 -4.3668548,24.653748 -6.6776924,22.883096 l 5.3697048,-7.754048 c 2.3095712,1.774008 10.0262655,6.646893 6.8675169,11.208747 z M 11.549509,14.18029 C 8.7933979,18.158826 3.0730681,13.055924 1.1494383,11.579324 L 6.018936,4.5463114 C 7.9425595,6.022909 14.422637,10.02943 11.549509,14.18029 Z"
       style="fill:#ff00ff;fill-opacity:1"
       inkscape:connector-curvature="0" />
  </g>
</svg>
